<?xml version="1.0" standalone="no"?>
<!DOCTYPE svg PUBLIC "-//W3C//DTD SVG 20010904//EN"
 "http://www.w3.org/TR/2001/REC-SVG-20010904/DTD/svg10.dtd">
<svg version="1.0" xmlns="http://www.w3.org/2000/svg"
 width="520.000000pt" height="520.000000pt" viewBox="0 0 520.000000 520.000000"
 preserveAspectRatio="xMidYMid meet">
<metadata>
Created by potrace 1.14, written by Peter Selinger 2001-2017
</metadata>
<g transform="translate(0.000000,520.000000) scale(0.100000,-0.100000)"
fill="#000000" stroke="none">
<path d="M2645 4928 c-22 -11 -62 -41 -88 -67 l-48 -46 -207 53 c-344 88 -468
91 -619 17 -106 -52 -157 -108 -230 -250 -204 -399 -672 -1672 -968 -2630
-153 -496 -167 -576 -120 -699 29 -77 48 -107 117 -184 27 -29 48 -59 48 -68
0 -29 42 -98 93 -151 55 -59 99 -89 149 -104 45 -13 686 -151 1298 -280 157
-32 314 -66 350 -74 140 -30 673 -135 815 -160 83 -14 152 -30 153 -35 5 -13
162 -13 162 -1 0 5 17 15 38 21 57 19 127 67 177 122 55 61 120 188 135 265
32 160 261 986 435 1568 65 219 74 249 108 365 67 232 205 674 258 830 33 96
69 211 79 256 14 63 31 100 74 167 39 60 56 97 56 119 0 61 -55 243 -90 303
-42 69 -107 145 -124 145 -7 0 -35 32 -61 70 -77 112 -156 167 -281 196 -74
17 -135 12 -199 -15 -32 -14 -56 -41 -120 -129 -44 -62 -84 -112 -90 -111 -5
0 -68 17 -140 38 l-130 37 -2 55 c-6 162 -53 244 -163 290 -22 9 -70 14 -130
14 -107 0 -149 -14 -233 -78 -26 -21 -49 -37 -52 -37 -3 0 -5 9 -5 20 0 34
-29 93 -63 128 -50 53 -84 62 -221 62 -102 -1 -127 -4 -161 -22z m87 -13
c-182 -57 -296 -312 -235 -529 30 -106 127 -186 226 -186 16 0 26 -4 23 -9 -3
-5 -25 -5 -50 0 -144 27 -215 119 -224 295 -4 74 -1 105 16 160 50 164 161
281 267 282 11 1 1 -5 -23 -13z m121 8 c-7 -2 -19 -2 -25 0 -7 3 -2 5 12 5 14
0 19 -2 13 -5z m67 -18 c16 -8 40 -30 53 -47 25 -34 53 -106 44 -114 -3 -3 -8
8 -12 25 -9 44 -59 108 -102 130 -21 11 -32 20 -25 21 7 0 26 -7 42 -15z m565
-105 c50 -24 91 -81 100 -141 l6 -34 -14 36 c-37 97 -94 145 -185 156 -115 13
-229 -67 -297 -209 -19 -40 -35 -66 -35 -59 0 8 16 47 35 86 80 167 243 236
390 165z m-591 -10 c25 -9 66 -74 54 -85 -7 -8 -248 58 -248 67 0 23 145 37
194 18z m133 -122 c-2 -13 -4 -5 -4 17 -1 22 1 32 4 23 2 -10 2 -28 0 -40z
m461 -2 c29 -28 38 -124 12 -118 -84 19 -280 77 -280 83 0 10 63 48 98 60 15
4 54 6 87 4 45 -4 65 -11 83 -29z m-1263 -11 c50 -8 113 -21 140 -28 44 -11
50 -15 48 -37 -8 -114 -5 -200 10 -243 55 -157 151 -242 287 -254 56 -5 61 -4
89 25 18 18 31 41 31 55 0 39 -45 85 -88 92 -73 12 -85 16 -112 43 -34 35 -60
121 -60 202 0 54 2 61 18 56 159 -48 379 -119 384 -124 4 -4 9 -48 12 -99 8
-127 34 -193 105 -264 61 -61 124 -89 207 -92 40 -2 49 2 75 31 34 38 36 56 9
99 -19 32 -30 37 -104 47 -64 9 -119 75 -135 162 -5 27 -6 52 -2 56 9 10 641
-201 641 -214 0 -6 -13 -27 -29 -47 -15 -20 -81 -116 -146 -214 -90 -135 -122
-176 -134 -171 -20 8 -420 116 -771 209 -306 81 -775 206 -788 210 -19 7 -44
-56 -29 -72 7 -6 89 -32 182 -56 94 -25 249 -66 345 -92 96 -26 240 -64 320
-85 80 -21 264 -70 410 -109 146 -39 273 -71 282 -71 10 0 18 -3 18 -6 0 -8
-187 -269 -202 -282 -10 -8 -71 5 -223 48 -116 31 -252 69 -302 83 l-93 25 0
-42 c0 -42 1 -43 43 -53 408 -101 479 -122 554 -169 89 -55 72 -63 188 96 41
58 89 123 106 145 51 67 262 366 312 443 51 75 75 100 35 34 -57 -93 -344
-501 -474 -674 -58 -76 -71 -98 -60 -107 10 -9 33 14 102 102 163 204 293 395
478 700 43 70 82 127 87 127 6 0 37 -18 70 -40 l59 -41 -102 -113 c-174 -190
-249 -289 -435 -571 -69 -104 -133 -202 -144 -217 -10 -15 -19 -30 -19 -33 0
-3 22 -33 48 -68 86 -110 116 -173 159 -332 38 -137 52 -230 52 -343 l1 -103
62 48 c34 26 89 74 122 106 33 31 61 57 63 57 9 0 -4 -55 -72 -297 -190 -674
-271 -942 -348 -1149 -71 -192 -115 -244 -206 -244 -24 0 -188 29 -365 64
-176 36 -586 117 -911 181 -324 64 -714 141 -865 171 -457 90 -534 125 -547
245 -8 71 92 423 282 994 304 914 534 1511 727 1884 111 215 172 292 249 316
59 18 243 18 354 0z m1372 -112 c-2 -16 -4 -3 -4 27 0 30 2 43 4 28 2 -16 2
-40 0 -55z m-540 -35 c-3 -8 -6 -5 -6 6 -1 11 2 17 5 13 3 -3 4 -12 1 -19z
m1258 -20 c25 -12 44 -26 43 -30 -3 -9 -107 -134 -159 -191 l-36 -40 -47 18
c-26 10 -45 21 -44 25 7 16 184 239 190 240 4 0 28 -10 53 -22z m394 -143 c0
-5 -4 -3 -9 5 -5 8 -9 22 -9 30 0 16 17 -16 18 -35z m-1558 -198 c20 -16 54
-35 75 -42 22 -8 31 -14 21 -15 -53 -1 -140 63 -168 125 -29 63 -22 75 9 15
15 -30 43 -67 63 -83z m816 0 c-18 -18 -38 -41 -45 -52 -10 -17 -11 -16 -1 5
19 40 52 80 65 80 7 0 -2 -15 -19 -33z m195 -19 c33 -17 68 -44 79 -60 29 -39
10 -35 -32 8 -40 42 -70 59 -141 79 l-53 15 44 -5 c25 -3 71 -20 103 -37z
m513 -73 c-14 -26 -25 -42 -25 -35 0 15 42 91 47 86 2 -2 -8 -25 -22 -51z
m-1368 29 c-3 -3 -12 -4 -19 -1 -8 3 -5 6 6 6 11 1 17 -2 13 -5z m1360 -106
c-3 -8 -6 -5 -6 6 -1 11 2 17 5 13 3 -3 4 -12 1 -19z m-550 -825 c-8 -15 -25
-37 -38 -48 l-23 -20 24 40 c13 22 29 48 34 58 17 27 19 2 3 -30z m-81 -105
c-9 -13 -26 -38 -39 -55 -12 -18 -26 -33 -31 -33 -5 0 -3 8 5 18 8 9 27 34 43
55 15 20 30 37 33 37 3 0 -2 -10 -11 -22z m-97 -125 c-40 -47 -42 -49 -34 -33
10 19 47 60 53 60 3 0 -5 -12 -19 -27z m-115 -138 c-21 -24 -40 -42 -43 -40
-4 5 68 85 77 85 1 0 -14 -20 -34 -45z m-99 -105 c-10 -11 -20 -18 -23 -15 -7
6 18 35 31 35 5 0 2 -9 -8 -20z m412 -472 c-3 -8 -6 -5 -6 6 -1 11 2 17 5 13
3 -3 4 -12 1 -19z m-17 -55 c-11 -17 -11 -17 -6 0 3 10 6 24 7 30 0 9 2 9 5 0
3 -7 0 -20 -6 -30z m-3501 -1139 c14 -12 -19 -1 -35 12 -18 14 -18 14 6 3 14
-6 27 -13 29 -15z m3041 -367 c0 -2 -12 -14 -27 -28 l-28 -24 24 28 c23 25 31
32 31 24z"/>
<path d="M1999 4506 c-98 -22 -185 -78 -239 -151 -8 -11 4 -4 25 16 49 45 140
93 160 85 8 -3 15 -1 15 4 0 16 22 11 37 -7 13 -17 14 -16 10 5 -6 28 18 30
26 2 3 -11 13 -20 24 -20 10 0 31 -7 47 -15 35 -18 82 -20 89 -2 3 7 6 5 6 -5
1 -12 9 -18 26 -18 16 0 25 -6 25 -15 0 -8 4 -15 9 -15 21 0 41 13 41 27 0 10
6 13 16 9 9 -3 17 -6 19 -6 2 0 1 -9 -2 -20 -4 -16 -2 -19 11 -14 10 4 22 0
30 -11 10 -14 12 -7 11 44 -1 34 -4 64 -7 67 -3 3 -43 14 -89 25 -108 26 -219
32 -290 15z m93 -58 c-7 -7 -12 -8 -12 -2 0 14 12 26 19 19 2 -3 -1 -11 -7
-17z m48 -8 c0 -5 -4 -10 -10 -10 -5 0 -10 5 -10 10 0 6 5 10 10 10 6 0 10 -4
10 -10z"/>
<path d="M2610 4398 c0 -26 45 -82 70 -90 14 -4 42 -10 62 -13 21 -3 51 -17
67 -31 20 -17 31 -21 34 -12 4 10 7 11 18 1 20 -19 59 -16 59 4 0 14 2 15 13
4 10 -11 10 -14 0 -18 -18 -7 -16 -23 2 -23 9 0 18 -7 21 -15 9 -22 26 -18 19
4 -3 11 -7 36 -9 56 -2 20 -7 40 -12 45 -5 5 -76 27 -159 49 -82 22 -158 43
-167 46 -12 5 -18 2 -18 -7z m230 -124 c0 -8 -4 -12 -10 -9 -5 3 -10 10 -10
16 0 5 5 9 10 9 6 0 10 -7 10 -16z"/>
<path d="M3222 4217 c18 -17 44 -27 80 -32 43 -6 60 -15 90 -45 22 -21 38 -48
39 -61 l0 -24 9 23 c5 12 17 22 25 22 9 0 13 5 10 10 -3 6 3 10 15 10 18 0 19
-3 10 -20 -11 -20 3 -30 15 -10 7 12 55 14 55 3 0 -5 11 -9 25 -10 51 -5 65
-7 65 -11 0 -2 -9 -15 -20 -29 -21 -27 -27 -48 -11 -38 5 3 23 23 40 44 l30
38 -112 36 c-168 54 -267 85 -315 97 -24 6 -51 14 -60 16 -11 4 -7 -4 10 -19z
m228 -87 c0 -5 -4 -10 -9 -10 -6 0 -13 5 -16 10 -3 6 1 10 9 10 9 0 16 -4 16
-10z"/>
<path d="M1824 3646 c-69 -30 -64 44 -64 -1039 l0 -979 34 -34 34 -34 149 0
c178 0 194 7 243 99 l32 60 71 -51 c148 -106 282 -144 476 -136 90 4 134 11
196 32 310 105 485 393 485 796 0 278 -76 486 -235 646 -122 122 -265 177
-460 177 -116 0 -194 -14 -306 -58 l-59 -24 0 235 c0 263 -4 284 -65 310 -48
20 -485 20 -531 0z m849 -977 c114 -31 190 -198 173 -378 -23 -254 -171 -339
-363 -208 l-63 42 0 247 0 248 43 21 c78 40 138 48 210 28z"/>
<path d="M2620 2353 c0 -112 8 -149 24 -107 12 31 6 179 -9 204 -13 23 -14 14
-15 -97z"/>
<path d="M1542 3266 c-9 -20 -9 -33 -3 -39 16 -16 23 -3 19 35 l-4 33 -12 -29z"/>
<path d="M1396 2904 c-9 -8 -16 -26 -16 -38 0 -20 9 -25 68 -40 37 -9 77 -19
90 -23 22 -5 23 -3 20 33 -3 38 -4 39 -65 55 -34 10 -66 20 -72 23 -5 3 -17
-1 -25 -10z"/>
<path d="M1230 2371 c-19 -36 -11 -48 38 -61 26 -7 85 -23 132 -36 47 -12 102
-26 123 -29 l37 -7 0 36 c0 32 -3 36 -37 45 -21 5 -90 23 -154 40 -64 17 -119
31 -122 31 -3 0 -11 -9 -17 -19z"/>
<path d="M1073 1987 c-6 -13 -8 -28 -5 -34 7 -11 142 -52 337 -103 66 -17 128
-33 138 -36 14 -4 17 1 17 30 0 19 -4 37 -8 40 -10 6 -448 126 -460 126 -5 0
-14 -11 -19 -23z"/>
<path d="M3148 1412 c-21 -10 -38 -20 -38 -24 0 -4 16 -10 37 -14 29 -5 39 -3
50 11 16 24 17 45 1 44 -7 0 -30 -8 -50 -17z"/>
</g>
</svg>
